<?xml version="1.0" encoding="UTF-8" standalone="no"?>
<!DOCTYPE svg PUBLIC "-//W3C//DTD SVG 1.1//EN" "http://www.w3.org/Graphics/SVG/1.1/DTD/svg11.dtd">
<svg width="100%" height="100%" viewBox="0 0 448 512" version="1.1" xmlns="http://www.w3.org/2000/svg" xmlns:xlink="http://www.w3.org/1999/xlink" xml:space="preserve" xmlns:serif="http://www.serif.com/" style="fill-rule:evenodd;clip-rule:evenodd;stroke-linejoin:round;stroke-miterlimit:1.41421;">
    <path d="M436,160L12,160C5.4,160 0,154.6 0,148L0,112C0,85.5 21.5,64 48,64L96,64L96,12C96,5.4 101.4,0 108,0L148,0C154.6,0 160,5.4 160,12L160,64L288,64L288,12C288,5.4 293.4,0 300,0L340,0C346.6,0 352,5.4 352,12L352,64L400,64C426.5,64 448,85.5 448,112L448,148C448,154.6 442.6,160 436,160ZM12,192L436,192C442.6,192 448,197.4 448,204L448,464C448,490.5 426.5,512 400,512L48,512C21.5,512 0,490.5 0,464L0,204C0,197.4 5.4,192 12,192ZM128,396C128,389.4 122.6,384 116,384L76,384C69.4,384 64,389.4 64,396L64,436C64,442.6 69.4,448 76,448L116,448C122.6,448 128,442.6 128,436L128,396ZM128,268C128,261.4 122.6,256 116,256L76,256C69.4,256 64,261.4 64,268L64,308C64,314.6 69.4,320 76,320L116,320C122.6,320 128,314.6 128,308L128,268ZM256,396C256,389.4 250.6,384 244,384L204,384C197.4,384 192,389.4 192,396L192,436C192,442.6 197.4,448 204,448L244,448C250.6,448 256,442.6 256,436L256,396ZM256,268C256,261.4 250.6,256 244,256L204,256C197.4,256 192,261.4 192,268L192,308C192,314.6 197.4,320 204,320L244,320C250.6,320 256,314.6 256,308L256,268ZM384,396C384,389.4 378.6,384 372,384L332,384C325.4,384 320,389.4 320,396L320,436C320,442.6 325.4,448 332,448L372,448C378.6,448 384,442.6 384,436L384,396ZM384,268C384,261.4 378.6,256 372,256L332,256C325.4,256 320,261.4 320,268L320,308C320,314.6 325.4,320 332,320L372,320C378.6,320 384,314.6 384,308L384,268Z" style="fill:rgb(77,77,77);fill-rule:nonzero;"/>
</svg>
