<?xml version="1.0" encoding="UTF-8" standalone="no"?>
<!DOCTYPE svg PUBLIC "-//W3C//DTD SVG 1.1//EN" "http://www.w3.org/Graphics/SVG/1.1/DTD/svg11.dtd">
<svg width="100%" height="100%" viewBox="0 0 512 512" version="1.1" xmlns="http://www.w3.org/2000/svg" xmlns:xlink="http://www.w3.org/1999/xlink" xml:space="preserve" xmlns:serif="http://www.serif.com/" style="fill-rule:evenodd;clip-rule:evenodd;stroke-linejoin:round;stroke-miterlimit:1.41421;">
    <path d="M256,8C119,8 8,119 8,256C8,393 119,504 256,504C393,504 504,393 504,256C504,119 393,8 256,8ZM313.1,358.1L224.9,294C221.8,291.7 220,288.1 220,284.3L220,116C220,109.4 225.4,104 232,104L280,104C286.6,104 292,109.4 292,116L292,253.7L355.5,299.9C360.9,303.8 362,311.3 358.1,316.7L329.9,355.5C326,360.8 318.5,362 313.1,358.1Z" style="fill:rgb(76,76,76);fill-rule:nonzero;"/>
</svg>
