<?xml version="1.0" encoding="UTF-8" standalone="no"?>
<!DOCTYPE svg PUBLIC "-//W3C//DTD SVG 1.1//EN" "http://www.w3.org/Graphics/SVG/1.1/DTD/svg11.dtd">
<svg width="100%" height="100%" viewBox="0 0 512 512" version="1.1" xmlns="http://www.w3.org/2000/svg" xmlns:xlink="http://www.w3.org/1999/xlink" xml:space="preserve" xmlns:serif="http://www.serif.com/" style="fill-rule:evenodd;clip-rule:evenodd;stroke-linejoin:round;stroke-miterlimit:1.41421;">
    <path d="M304,192L304,224C304,230.6 298.6,236 292,236L124,236C117.4,236 112,230.6 112,224L112,192C112,185.4 117.4,180 124,180L292,180C298.6,180 304,185.4 304,192ZM505,476.7L476.7,505C467.3,514.4 452.1,514.4 442.8,505L343,405.3C338.5,400.8 336,394.7 336,388.3L336,372C300.7,399.6 256.3,416 208,416C93.1,416 0,322.9 0,208C0,93.1 93.1,0 208,0C322.9,0 416,93.1 416,208C416,256.3 399.6,300.7 372,336L388.3,336C394.7,336 400.8,338.5 405.3,343L505,442.7C514.3,452.1 514.3,467.3 505,476.7ZM344,208C344,132.8 283.2,72 208,72C132.8,72 72,132.8 72,208C72,283.2 132.8,344 208,344C283.2,344 344,283.2 344,208Z" style="fill:rgb(77,77,77);fill-rule:nonzero;"/>
</svg>
